<?xml version="1.0" encoding="UTF-8"?>
<svg id="Layer_1" xmlns="http://www.w3.org/2000/svg" version="1.1" xmlns:xlink="http://www.w3.org/1999/xlink" viewBox="0 0 1537.41 470.12">
  <!-- Generator: Adobe Illustrator 29.8.1, SVG Export Plug-In . SVG Version: 2.1.1 Build 2)  -->
  <defs>
    <style>
      .st0 {
        font-family: Montserrat-Light, QAQGFR+Montserrat-Light;
        font-size: 57.22px;
        font-weight: 300;
      }

      .st0, .st1, .st2 {
        fill: #002f47;
      }

      .st2, .st3, .st4, .st5 {
        fill-rule: evenodd;
      }

      .st3 {
        fill: url(#linear-gradient1);
      }

      .st4 {
        fill: url(#linear-gradient);
      }

      .st5 {
        fill: url(#linear-gradient2);
      }
    </style>
    <linearGradient id="linear-gradient" x1="852.63" y1="143.94" x2="908.8" y2="46.64" gradientUnits="userSpaceOnUse">
      <stop offset="0" stop-color="#008a80"/>
      <stop offset="1" stop-color="#aff022"/>
    </linearGradient>
    <linearGradient id="linear-gradient1" x1="928.65" y1="184.65" x2="984.51" y2="87.9" xlink:href="#linear-gradient"/>
    <linearGradient id="linear-gradient2" x1="832.89" y1="184.86" x2="776.89" y2="87.87" xlink:href="#linear-gradient"/>
  </defs>
  <g>
    <path class="st2" d="M878.59,187.69c-13.19,4.64-26.81,8.33-39.46,14.15-17.06,7.85-30.87,19.82-37.39,38.33-4.73,13.43-4.03,26.56,2.84,39.19.83,1.53,1.96,2.9,3.9,5.73,0-3.1.07-4.47-.01-5.82-1.55-25.34,10.59-43.75,30.22-57.78,21.86-15.63,46.97-22.4,73.44-24.22,22.65-1.56,44.64,1.4,65.58,10.98,7.98,3.65,11.59,8.55,11.68,17.72.62,58.81-46.95,119.49-115.38,115.81-38.72-2.09-68.82-19.79-85.5-55.98-18.44-39.98-.63-80.09,41.07-94.12,14.6-4.91,29.62-6.57,44.94-4.34,1.57.23,3.1.76,4.64,1.15-.18-.27-.37-.53-.56-.79Z"/>
    <path class="st4" d="M880.67,160.13c-44.06-38.66-38.32-97.67.14-129.64,40.04,34.43,42.3,93.29-.14,129.64Z"/>
    <path class="st3" d="M989.44,96.86c.94,0,1.86,0,2.78,0,11.9.04,12.22.4,10.93,12.16-3.6,32.54-22,55.65-51.48,64.29-13.46,3.95-27.07,3.39-40.69.62-3.83-.78-4.46-2.84-4.05-6.36,4.08-35.8,30.36-63.49,65.95-69.16,5.47-.87,11.03-1.25,16.54-1.86,0,.1.03.21.03.3Z"/>
    <path class="st5" d="M771.74,97.12c27.5.55,51.2,9.42,67.99,32.33,8.49,11.57,12.75,24.93,15.02,39,.46,2.87-.16,4.58-3.2,5.28-29.2,6.72-60.74-1.04-78.74-25.63-9.99-13.66-13.85-29.26-14.77-45.82-.18-3.31,1.15-5.3,4.81-5.19,2.95.1,5.92.02,8.88.02Z"/>
  </g>
  <g>
    <path d="M126.04,321.87c-14.41,0-27.78-2.39-40.11-7.16-12.33-4.77-23.05-11.52-32.14-20.26-9.1-8.73-16.17-19.04-21.21-30.93-5.04-11.88-7.56-24.85-7.56-38.9s2.52-27.01,7.56-38.89c5.04-11.88,12.16-22.19,21.34-30.93,9.19-8.73,19.9-15.48,32.14-20.26,12.24-4.77,25.66-7.16,40.24-7.16,15.49,0,29.62,2.66,42.41,7.97,12.78,5.31,23.59,13.19,32.41,23.63l-22.69,21.34c-6.85-7.38-14.5-12.92-22.96-16.61-8.47-3.69-17.65-5.54-27.55-5.54s-18.96,1.62-27.15,4.86c-8.2,3.24-15.3,7.83-21.34,13.77-6.03,5.94-10.71,12.97-14.04,21.07-3.33,8.1-5,17.02-5,26.74s1.66,18.64,5,26.75c3.33,8.1,8.01,15.12,14.04,21.07,6.03,5.94,13.14,10.53,21.34,13.78,8.19,3.24,17.24,4.86,27.15,4.86s19.08-1.84,27.55-5.53c8.46-3.69,16.11-9.32,22.96-16.88l22.69,21.61c-8.83,10.26-19.63,18.09-32.41,23.5-12.79,5.4-27.01,8.1-42.68,8.1Z"/>
    <path d="M278.65,319.17v-74.82l7.83,21.6-82.12-135.86h37.55l65.91,109.39h-21.07l66.44-109.39h34.57l-82.11,135.86,8.1-21.6v74.82h-35.11Z"/>
    <path d="M461.58,319.17v-159.37h-62.66v-29.71h160.44v29.71h-62.67v159.37h-35.11Z"/>
    <path d="M585.83,319.17v-189.08h77.79c16.75,0,31.1,2.7,43.08,8.1,11.97,5.4,21.2,13.15,27.69,23.23,6.48,10.09,9.72,22.06,9.72,35.93s-3.24,25.79-9.72,35.79c-6.48,9.99-15.71,17.65-27.69,22.96-11.98,5.31-26.34,7.97-43.08,7.97h-58.34l15.66-15.94v71.04h-35.11ZM620.94,251.92l-15.66-16.74h56.72c15.48,0,27.15-3.33,34.98-10,7.83-6.66,11.75-15.94,11.75-27.82s-3.92-21.34-11.75-27.82c-7.83-6.48-19.5-9.72-34.98-9.72h-56.72l15.66-17.29v109.39ZM709.54,319.17l-47.81-68.61h37.54l48.08,68.61h-37.81Z"/>
    <path d="M1025.89,319.17v-189.08h28.9l118.58,145.59h-14.31v-145.59h34.84v189.08h-28.91l-118.58-145.59h14.32v145.59h-34.84Z"/>
    <path d="M1244.68,319.17v-189.08h35.11v189.08h-35.11Z"/>
    <path d="M1307.88,319.17l79.68-109.66v26.47l-75.9-105.88h39.71l56.45,78.33-16.2.27,55.91-78.6h38.08l-75.36,103.99v-25.39l80.22,110.47h-40.52l-59.43-83.19h15.94l-58.62,83.19h-39.97Z"/>
  </g>
  <text class="st0" transform="translate(555.09 436.73)"><tspan x="0" y="0">Agro Chemicals</tspan></text>
  <rect class="st1" x="40.11" y="421.75" width="468.25" height="1.4"/>
  <rect class="st1" x="1040.61" y="419.9" width="468.25" height="1.4"/>
</svg>